<?xml version="1.0" encoding="utf-8"?>
<!-- Generator: Adobe Illustrator 24.0.0, SVG Export Plug-In . SVG Version: 6.00 Build 0)  -->
<svg version="1.1" id="Layer_1" xmlns="http://www.w3.org/2000/svg" xmlns:xlink="http://www.w3.org/1999/xlink" x="0px" y="0px"
	 viewBox="0 0 175 24" style="enable-background:new 0 0 175 24;" xml:space="preserve">
<style type="text/css">
	.st0{fill:#99A3C5;}
	.st1{fill:#00186D;}
</style>
<g id="Layer_1_1_">
</g>
<path class="st0" d="M32.3,20c-0.3,0-0.5-0.1-0.7-0.2c-0.2-0.2-0.3-0.4-0.3-0.6L28.8,3.8V3.7c0-0.1,0-0.2,0.1-0.3s0.2-0.2,0.4-0.2
	h3.1c0.5,0,0.7,0.2,0.8,0.6l1.5,9.1l1.7-5.3C36.5,7.2,36.8,7,37.2,7H39c0.4,0,0.7,0.2,0.8,0.6l1.7,5.2l1.5-9c0-0.2,0.1-0.3,0.2-0.4
	c0.1-0.1,0.3-0.1,0.5-0.1h3.1c0.1,0,0.3,0.1,0.4,0.2c0.1,0.1,0.1,0.2,0.1,0.3v0.1l-2.6,15.4c0,0.2-0.1,0.4-0.3,0.6
	c-0.2,0-0.4,0.1-0.7,0.1h-2.4c-0.3,0-0.5-0.1-0.6-0.2s-0.2-0.3-0.3-0.4L38,12.7l-2.4,6.6c-0.1,0.2-0.2,0.3-0.3,0.4S35,20,34.7,20
	H32.3z M54.9,20.2c-2,0-3.6-0.5-4.7-1.4c-1.1-0.9-1.7-2.3-1.8-4c0-0.2,0-0.6,0-1.1s0-0.9,0-1.1c0.1-1.7,0.7-3,1.8-4s2.7-1.4,4.6-1.4
	s3.5,0.5,4.6,1.4s1.7,2.3,1.8,4c0,0.4,0,0.8,0,1.1s0,0.7,0,1.1c-0.1,1.7-0.7,3.1-1.8,4C58.5,19.8,57,20.2,54.9,20.2z M54.9,17.2
	c0.7,0,1.1-0.2,1.5-0.6c0.3-0.4,0.5-1,0.6-1.9c0-0.2,0-0.5,0-1s0-0.8,0-1c0-0.8-0.2-1.5-0.6-1.9c-0.3-0.4-0.8-0.6-1.5-0.6
	s-1.1,0.2-1.5,0.6c-0.3,0.4-0.5,1-0.6,1.9v1v1c0,0.8,0.2,1.5,0.6,1.9S54.3,17.2,54.9,17.2z M64.3,20c-0.2,0-0.3-0.1-0.4-0.2
	s-0.2-0.3-0.2-0.4V8.1c0-0.2,0.1-0.3,0.2-0.4c0.1-0.1,0.3-0.2,0.4-0.2h2.9c0.2,0,0.3,0.1,0.4,0.2s0.2,0.3,0.2,0.4V9
	c0.4-0.5,1-0.9,1.6-1.1c0.6-0.3,1.3-0.4,2-0.4h1.1c0.2,0,0.3,0.1,0.4,0.2s0.2,0.3,0.2,0.4v2.6c0,0.2-0.1,0.3-0.2,0.4
	c-0.1,0.1-0.3,0.2-0.4,0.2h-2.4c-0.6,0-1.1,0.2-1.5,0.5c-0.3,0.4-0.5,0.8-0.5,1.5v6c0,0.2-0.1,0.3-0.2,0.4s-0.3,0.2-0.4,0.2h-3.2V20
	z M75.4,20c-0.2,0-0.3-0.1-0.5-0.2c-0.1-0.1-0.2-0.3-0.2-0.4V3.6c0-0.2,0.1-0.3,0.2-0.4C75,3,75.2,3,75.4,3h3c0.2,0,0.3,0.1,0.4,0.2
	c0.1,0,0.2,0.2,0.2,0.4v15.8c0,0.2-0.1,0.3-0.2,0.4S78.5,20,78.4,20H75.4z M86.4,20.2c-1.6,0-2.8-0.5-3.7-1.5
	c-0.9-1-1.4-2.4-1.4-4.2v-0.8v-0.9c0.1-1.7,0.5-3.1,1.4-4.1s2.1-1.5,3.6-1.5c1.4,0,2.6,0.5,3.5,1.4v-5c0-0.2,0.1-0.3,0.2-0.4
	C90.2,3,90.3,3,90.5,3h3.1c0.1,0,0.3,0,0.4,0.1s0.2,0.3,0.2,0.4v15.8c0,0.2-0.1,0.3-0.2,0.4s-0.3,0.2-0.4,0.2h-2.9
	c-0.2,0-0.3-0.1-0.4-0.2s-0.2-0.3-0.2-0.4v-0.7C89.2,19.7,88,20.2,86.4,20.2z M87.8,16.9c0.7,0,1.2-0.2,1.5-0.6s0.5-1,0.6-1.7
	c0-0.4,0-0.8,0-0.9c0-0.2,0-0.5,0-0.9c0-0.6-0.2-1.1-0.6-1.5c-0.3-0.4-0.8-0.6-1.5-0.6s-1.2,0.2-1.6,0.6c-0.3,0.4-0.5,1-0.5,1.8v0.7
	v0.7c0,0.8,0.2,1.3,0.5,1.8C86.5,16.7,87.1,16.9,87.8,16.9z"/>
<path class="st1" d="M102.8,20c-0.2,0-0.3-0.1-0.4-0.2s-0.2-0.3-0.2-0.4V3.8c0-0.2,0.1-0.3,0.2-0.4c0.1-0.1,0.3-0.2,0.4-0.2h6.6
	c2.1,0,3.8,0.5,4.9,1.4c1.2,1,1.8,2.3,1.8,4.1c0,1.1-0.3,2.1-0.8,2.9c-0.5,0.8-1.2,1.4-2.1,1.8l3.2,5.9c0,0.1,0.1,0.2,0.1,0.3
	c0,0.1,0,0.2-0.1,0.4c-0.1,0.1-0.2,0.1-0.4,0.1h-3.4c-0.5,0-0.8-0.2-1-0.6l-2.6-5.2h-2.3v5.3c0,0.2-0.1,0.3-0.2,0.4
	s-0.3,0.2-0.4,0.2h-3.3V20z M109.4,10.6c0.7,0,1.2-0.2,1.6-0.5c0.4-0.4,0.6-0.8,0.6-1.4s-0.2-1.1-0.6-1.5s-0.9-0.6-1.6-0.6h-2.7v4
	H109.4z M122.4,20.2c-0.8,0-1.6-0.2-2.3-0.5c-0.7-0.3-1.2-0.8-1.6-1.4s-0.6-1.2-0.6-1.9c0-1.1,0.4-2,1.3-2.6
	c0.9-0.7,2.2-1.2,3.7-1.4l3-0.5v-0.3c0-0.6-0.1-1-0.4-1.3c-0.2-0.3-0.6-0.4-1.2-0.4c-0.3,0-0.6,0.1-0.8,0.2
	c-0.2,0.1-0.4,0.3-0.7,0.5c-0.2,0.2-0.4,0.3-0.6,0.4c-0.1,0.1-0.1,0.2-0.2,0.2h-2.8c-0.2,0-0.3,0-0.4-0.1s-0.1-0.2-0.1-0.4
	c0-0.4,0.2-0.9,0.6-1.4s1-1,1.9-1.4c0.8-0.4,1.9-0.6,3.1-0.6c2,0,3.5,0.4,4.4,1.3c1,0.9,1.4,2,1.4,3.5v7.3c0,0.2-0.1,0.3-0.2,0.4
	c-0.1,0.1-0.3,0.2-0.4,0.2h-3c-0.2,0-0.3-0.1-0.4-0.2s-0.2-0.3-0.2-0.4v-0.8c-0.4,0.5-0.8,0.9-1.5,1.2
	C124,20.1,123.3,20.2,122.4,20.2z M123.6,17.4c0.7,0,1.3-0.2,1.7-0.7c0.4-0.5,0.7-1.1,0.7-2v-0.3l-2,0.3c-1.3,0.3-2,0.7-2,1.4
	c0,0.4,0.2,0.7,0.5,0.9C122.8,17.3,123.1,17.4,123.6,17.4z M133.5,20c-0.2,0-0.3-0.1-0.4-0.2c-0.1-0.1-0.2-0.3-0.2-0.4V8.1
	c0-0.2,0.1-0.3,0.2-0.4c0.1-0.1,0.3-0.2,0.4-0.2h3c0.2,0,0.3,0.1,0.4,0.2s0.2,0.3,0.2,0.4V9c0.4-0.5,1-1,1.7-1.3s1.5-0.5,2.4-0.5
	s1.7,0.2,2.4,0.6s1.3,1,1.7,1.8s0.6,1.8,0.6,3v6.7c0,0.2-0.1,0.3-0.2,0.4c-0.1,0.1-0.3,0.2-0.4,0.2H142c-0.2,0-0.3-0.1-0.5-0.2
	c-0.1-0.1-0.2-0.3-0.2-0.4v-6.6c0-0.7-0.2-1.3-0.5-1.7s-0.8-0.6-1.5-0.6c-0.6,0-1.1,0.2-1.5,0.6c-0.4,0.4-0.6,0.9-0.6,1.6v6.6
	c0,0.2-0.1,0.3-0.2,0.4c-0.1,0.1-0.3,0.2-0.4,0.2h-3.1V20z M149,20c-0.2,0-0.3-0.1-0.5-0.2c-0.1-0.1-0.2-0.3-0.2-0.4V3.6
	c0-0.2,0.1-0.3,0.2-0.4C148.7,3,148.8,3,149,3h2.9c0.2,0,0.3,0.1,0.4,0.2s0.2,0.3,0.2,0.4v8l3.2-3.6c0,0,0.1-0.1,0.2-0.2
	c0.1-0.1,0.2-0.1,0.3-0.2c0.1,0,0.2-0.1,0.4-0.1h3.4c0.1,0,0.3,0.1,0.4,0.2c0.1,0.1,0.2,0.2,0.2,0.4c0,0.1-0.1,0.3-0.2,0.4l-4.2,4.7
	l4.8,6c0.1,0.1,0.2,0.3,0.2,0.4c0,0.2-0.1,0.3-0.2,0.4c-0.1,0.1-0.2,0.1-0.4,0.1H157c-0.2,0-0.4,0-0.5-0.1s-0.2-0.2-0.4-0.3
	l-3.6-4.5v4.3c0,0.2-0.1,0.3-0.2,0.4c-0.1,0.1-0.3,0.2-0.4,0.2H149V20z M167.5,20.2c-1.3,0-2.4-0.2-3.3-0.6s-1.5-0.8-2-1.3
	c-0.4-0.5-0.6-1-0.6-1.4c0-0.2,0.1-0.3,0.2-0.4c0.1-0.1,0.3-0.2,0.4-0.2h2.9c0.1,0,0.2,0,0.2,0.1c0.3,0.2,0.4,0.3,0.5,0.3
	c0.3,0.2,0.6,0.4,0.8,0.5c0.3,0.1,0.6,0.2,1,0.2s0.8-0.1,1.1-0.2c0.3-0.2,0.4-0.4,0.4-0.7c0-0.3-0.1-0.5-0.2-0.6
	c-0.1-0.2-0.4-0.3-0.9-0.5c-0.4-0.2-1.1-0.3-1.9-0.5c-2.8-0.6-4.2-1.8-4.2-3.8c0-0.7,0.2-1.3,0.6-1.9c0.4-0.6,1.1-1.1,1.9-1.5
	c0.8-0.4,1.8-0.6,3-0.6s2.2,0.2,3,0.6c0.9,0.4,1.5,0.8,2,1.3c0.4,0.5,0.7,1,0.7,1.4c0,0.1-0.1,0.3-0.2,0.4c-0.1,0.1-0.2,0.2-0.4,0.2
	h-2.6c-0.1,0-0.3,0-0.3-0.1c-0.2-0.1-0.4-0.2-0.6-0.4c-0.3-0.2-0.5-0.3-0.8-0.4c-0.2-0.1-0.5-0.2-0.8-0.2c-0.4,0-0.7,0.1-0.9,0.3
	s-0.3,0.4-0.3,0.7c0,0.2,0.1,0.4,0.2,0.6c0.1,0.1,0.4,0.3,0.8,0.4c0.4,0.1,1.1,0.3,1.9,0.5c1.6,0.3,2.7,0.8,3.4,1.5s1.1,1.5,1.1,2.4
	c0,1.2-0.5,2.2-1.6,2.9C170.9,19.9,169.5,20.2,167.5,20.2z"/>
</svg>
